<svg xmlns="http://www.w3.org/2000/svg" viewBox="0 0 1035.88 706"><defs><style>.cls-1{fill:#fff;}</style></defs><g id="Calque_2" data-name="Calque 2"><g id="Calque_1-2" data-name="Calque 1"><path class="cls-1" d="M489.15,0C481,41.56,473,81.89,464.54,124.7L336.91,6.41c-11,12-21.09,23.14-31.35,34.09q-38.37,40.95-76.88,81.79-16.2,17.25-32.25,34.64-49.35,53.31-98.67,106.63c-24.73,26.62-49.68,53-74.45,79.6C15.6,351.44,8.15,360,0,369L362.62,706,491.69,567.74c49.56,9.86,97.95,19.5,146.35,29.1s96.81,19.38,145.3,28.64c48.27,9.21,96.37,19.4,145,28,35.94-182.62,71.57-363.64,107.53-546.32C853.11,71.39,671.56,35.36,489.15,0ZM412.73,211.44s54.95-.26,77-.06A126.37,126.37,0,0,1,613.38,317.46c2,12.14,1,36.55-2.1,45.46-16.15-1.19-47.28-4.94-59.7-7.43,3.9-31.54-3-58.74-28-78.65-14.93-11.85-32.59-15.48-52.27-14v151c25.41,6.85,52.77-7.45,74.55-39.35l59.43,11.34a31.87,31.87,0,0,1-3.48,9.25c-20.45,39.45-51.17,64.24-95.65,69-29.76,3.19-60,1.67-90.08,2.19-1,0-3.69,0-3.69,0C412.36,382.15,412.73,296.48,412.73,211.44ZM303.48,363.18c-18.72.38-37.44.17-56.17.17H233.9v102.5H177.22V213.39l55.85-1.07c.26,3.57,1.1,95.15,1.31,99.89h82.83V211.57c19.34-.48,37.46-.23,55.32-.11l1.35,124.39c-2.2.92-7.25,2.44-7.25,2.44a237.33,237.33,0,0,0-49.7,23.12C313.87,363.47,308,363.09,303.48,363.18Zm13.9,102.51V370.08a155.26,155.26,0,0,1,55.86-24.45V465.69Zm535.8,0L841.09,316.37l-2.7-.47c-17.49,49.1-34.42,98.41-52,148H751.81L700.14,316.48l-2.35.18c-4,24.62-3.86,49.7-6.51,74.47s-4,49.47-6,74.8H627.79c7.66-84.92,15.25-169,22.89-253.74h61.51l55.47,143.64L770,356c10.51-23.44,18.83-47.79,28.21-71.7s18.54-47.82,27.94-72.12h61c8.17,84.35,15.33,168.52,23,253.53Z"/></g></g></svg>